<?xml version="1.0" encoding="UTF-8" standalone="no"?>
<!DOCTYPE svg PUBLIC "-//W3C//DTD SVG 1.1//EN" "http://www.w3.org/Graphics/SVG/1.1/DTD/svg11.dtd">
<svg xmlns="http://www.w3.org/2000/svg" xmlns:xlink="http://www.w3.org/1999/xlink" version="1.1" width="418.152pt" height="455.699pt" viewBox="0 0 418.152 455.699">
<g enable-background="new">
<path transform="matrix(1,0,0,-1,63.348,185.319)" stroke-width="1.13385" stroke-linecap="butt" stroke-miterlimit="10" stroke-linejoin="miter" fill="none" stroke="#000000" d="M -35.43349 0 L -35.43349 -184.25424 "/>
<path transform="matrix(1,0,0,-1,63.348,185.319)" stroke-width="1.13385" stroke-linecap="butt" stroke-miterlimit="10" stroke-linejoin="miter" fill="none" stroke="#000000" d="M -35.43349 -184.25424 C -35.43349 -190.51644 -19.56963 -195.5928 0 -195.5928 C 19.56963 -195.5928 35.43349 -190.51644 35.43349 -184.25424 "/>
<path transform="matrix(1,0,0,-1,63.348,185.319)" stroke-width="1.13385" stroke-linecap="butt" stroke-dasharray="2.98883,2.98883" stroke-miterlimit="10" stroke-linejoin="miter" fill="none" stroke="#000000" d="M -35.43349 -184.25424 C -35.43349 -177.99207 -19.56963 -172.9157 0 -172.9157 C 19.56963 -172.9157 35.43349 -177.99207 35.43349 -184.25424 "/>
<path transform="matrix(1,0,0,-1,63.348,185.319)" stroke-width="1.13385" stroke-linecap="butt" stroke-miterlimit="10" stroke-linejoin="miter" fill="none" stroke="#000000" d="M 35.43349 -184.25424 L 35.43349 0 "/>
<path transform="matrix(1,0,0,-1,63.348,185.319)" d="M -35.43349 0 L -35.43349 -184.25424 C -35.43349 -190.51644 -19.56963 -195.5928 0 -195.5928 C 19.56963 -195.5928 35.43349 -190.51644 35.43349 -184.25424 L 35.43349 0 C 35.43349 -6.26218 19.56963 -11.33855 0 -11.33855 C -19.56963 -11.33855 -35.43349 -6.26218 -35.43349 0 " fill-opacity=".7"/>
<path transform="matrix(1,0,0,-1,63.348,185.319)" d="M -56.69362 56.69362 L -35.43349 0 C -35.43349 -6.26218 -19.56963 -11.33855 0 -11.33855 C 19.56963 -11.33855 35.43349 -6.26218 35.43349 0 L 56.69362 56.69362 C 56.69362 50.43143 31.31142 45.35507 0 45.35507 C -31.31142 45.35507 -56.69362 50.43143 -56.69362 56.69362 " fill="#3f51b5"/>
<path transform="matrix(1,0,0,-1,63.348,185.319)" d="M -56.69362 170.08086 L -56.69362 56.69362 C -56.69362 50.43143 -31.31142 45.35507 0 45.35507 C 31.31142 45.35507 56.69362 50.43143 56.69362 56.69362 L 56.69362 170.08086 C 56.69362 163.81867 31.31142 158.74231 0 158.74231 C -31.31142 158.74231 -56.69362 163.81867 -56.69362 170.08086 " fill="#3f51b5"/>
<path transform="matrix(1,0,0,-1,63.348,185.319)" stroke-width="1.13385" stroke-linecap="butt" stroke-miterlimit="10" stroke-linejoin="miter" fill="none" stroke="#000000" d="M -56.69362 170.08086 C -56.69362 163.81867 -31.31142 158.74231 0 158.74231 C 31.31142 158.74231 56.69362 163.81867 56.69362 170.08086 "/>
<text xml:space="preserve" transform="matrix(1 0 -0 1 0 455.69898)" font-size="24.7871" font-family="CMR17"><tspan y="-176.734" x="170.403">h</tspan></text>
<text xml:space="preserve" transform="matrix(1 0 -0 1 0 455.699)" font-size="24.7871" font-family="CMR17"><tspan y="-6.655" x="57.017">d</tspan></text>
<path transform="matrix(1,0,0,-1,63.348,185.319)" d="M 56.69362 170.08086 C 56.69362 176.34304 31.31142 181.4194 0 181.4194 C -31.31142 181.4194 -56.69362 176.34304 -56.69362 170.08086 C -56.69362 163.81867 -31.31142 158.74231 0 158.74231 C 31.31142 158.74231 56.69362 163.81867 56.69362 170.08086 Z M 0 170.08086 " fill="#3f51b5"/>
<path transform="matrix(1,0,0,-1,63.348,185.319)" stroke-width=".3985" stroke-linecap="butt" stroke-miterlimit="10" stroke-linejoin="miter" fill="none" stroke="#3f51b5" d="M 56.69362 170.08086 C 56.69362 176.34304 31.31142 181.4194 0 181.4194 C -31.31142 181.4194 -56.69362 176.34304 -56.69362 170.08086 C -56.69362 163.81867 -31.31142 158.74231 0 158.74231 C 31.31142 158.74231 56.69362 163.81867 56.69362 170.08086 Z M 0 170.08086 "/>
<path transform="matrix(1,0,0,-1,63.348,185.319)" stroke-width="1.13385" stroke-linecap="butt" stroke-miterlimit="10" stroke-linejoin="miter" fill="none" stroke="#000000" d="M -56.69362 56.69362 C -56.69362 50.43143 -31.31142 45.35507 0 45.35507 C 31.31142 45.35507 56.69362 50.43143 56.69362 56.69362 "/>
<path transform="matrix(1,0,0,-1,63.348,185.319)" stroke-width="1.13385" stroke-linecap="butt" stroke-miterlimit="10" stroke-linejoin="miter" fill="none" stroke="#000000" d=""/>
<path transform="matrix(1,0,0,-1,63.348,185.319)" stroke-width="1.13385" stroke-linecap="butt" stroke-miterlimit="10" stroke-linejoin="miter" fill="none" stroke="#000000" d="M 85.04042 -4.4377 L 85.04042 -179.81655 "/>
<path transform="matrix(0,-1,-1,-0,148.38843,189.7567)" stroke-width=".90707" stroke-linecap="round" stroke-linejoin="round" fill="none" stroke="#000000" d="M -1.85735 2.47646 C -1.70256 1.54778 0 .15477 .46432 0 C 0 -.15477 -1.70256 -1.54778 -1.85735 -2.47646 "/>
<path transform="matrix(0,1,1,0,148.38843,365.13557)" stroke-width=".90707" stroke-linecap="round" stroke-linejoin="round" fill="none" stroke="#000000" d="M -1.85735 2.47646 C -1.70256 1.54778 0 .15477 .46432 0 C 0 -.15477 -1.70256 -1.54778 -1.85735 -2.47646 "/>
<path transform="matrix(1,0,0,-1,63.348,185.319)" stroke-width="1.13385" stroke-linecap="butt" stroke-miterlimit="10" stroke-linejoin="miter" fill="none" stroke="#000000" d=""/>
<path transform="matrix(1,0,0,-1,63.348,185.319)" stroke-width="1.13385" stroke-linecap="butt" stroke-miterlimit="10" stroke-linejoin="miter" fill="none" stroke="#000000" d="M -30.99579 -226.77448 L 30.99579 -226.77448 "/>
<path transform="matrix(-1,-0,0,1,32.35221,412.09349)" stroke-width=".90707" stroke-linecap="round" stroke-linejoin="round" fill="none" stroke="#000000" d="M -1.85735 2.47646 C -1.70256 1.54778 0 .15477 .46432 0 C 0 -.15477 -1.70256 -1.54778 -1.85735 -2.47646 "/>
<path transform="matrix(1,0,0,-1,94.34379,412.09349)" stroke-width=".90707" stroke-linecap="round" stroke-linejoin="round" fill="none" stroke="#000000" d="M -1.85735 2.47646 C -1.70256 1.54778 0 .15477 .46432 0 C 0 -.15477 -1.70256 -1.54778 -1.85735 -2.47646 "/>
<path transform="matrix(1,0,0,-1,63.348,185.319)" stroke-width="1.13385" stroke-linecap="butt" stroke-miterlimit="10" stroke-linejoin="miter" fill="none" stroke="#000000" d="M 56.69362 170.08086 C 56.69362 176.34304 31.31142 181.4194 0 181.4194 C -31.31142 181.4194 -56.69362 176.34304 -56.69362 170.08086 C -56.69362 163.81867 -31.31142 158.74231 0 158.74231 C 31.31142 158.74231 56.69362 163.81867 56.69362 170.08086 Z M 0 170.08086 "/>
<path transform="matrix(1,0,0,-1,63.348,185.319)" stroke-width="1.13385" stroke-linecap="butt" stroke-miterlimit="10" stroke-linejoin="miter" fill="none" stroke="#000000" d="M -56.69362 170.08086 C -56.69362 163.81867 -31.31142 158.74231 0 158.74231 C 31.31142 158.74231 56.69362 163.81867 56.69362 170.08086 "/>
<path transform="matrix(1,0,0,-1,63.348,185.319)" stroke-width="1.13385" stroke-linecap="butt" stroke-miterlimit="10" stroke-linejoin="miter" fill="none" stroke="#000000" d="M -56.69362 170.08086 L -56.69362 56.69362 "/>
<path transform="matrix(1,0,0,-1,63.348,185.319)" stroke-width="1.13385" stroke-linecap="butt" stroke-miterlimit="10" stroke-linejoin="miter" fill="none" stroke="#000000" d="M 56.69362 170.08086 L 56.69362 56.69362 "/>
<path transform="matrix(1,0,0,-1,63.348,185.319)" stroke-width="1.13385" stroke-linecap="butt" stroke-miterlimit="10" stroke-linejoin="miter" fill="none" stroke="#000000" d="M -56.69362 56.69362 L -35.43349 0 "/>
<path transform="matrix(1,0,0,-1,63.348,185.319)" stroke-width="1.13385" stroke-linecap="butt" stroke-miterlimit="10" stroke-linejoin="miter" fill="none" stroke="#000000" d="M 56.69362 56.69362 L 35.43349 0 "/>
<path transform="matrix(1,0,0,-1,63.348,185.319)" stroke-width="1.13385" stroke-linecap="butt" stroke-dasharray="2.98883,2.98883" stroke-miterlimit="10" stroke-linejoin="miter" fill="none" stroke="#000000" d="M -35.43349 0 C -35.43349 6.26218 -19.56963 11.33855 0 11.33855 C 19.56963 11.33855 35.43349 6.26218 35.43349 0 "/>
<path transform="matrix(1,0,0,-1,63.348,185.319)" stroke-width="1.13385" stroke-linecap="butt" stroke-miterlimit="10" stroke-linejoin="miter" fill="none" stroke="#000000" d="M -35.43349 0 C -35.43349 -6.26218 -19.56963 -11.33855 0 -11.33855 C 19.56963 -11.33855 35.43349 -6.26218 35.43349 0 "/>
<text xml:space="preserve" transform="matrix(1 0 -0 1 .000015258789 455.69898)" font-size="24.7871" font-family="CMMI12" font-style="italic"><tspan y="-259.34" x="253.782">S</tspan></text>
<text xml:space="preserve" transform="matrix(1 0 -0 1 .000015258789 455.69898)" font-size="24.7871" font-family="CMR17"><tspan y="-259.34" x="277.037">=</tspan></text>
<text xml:space="preserve" transform="matrix(1 0 -0 1 .000015258789 455.69898)" font-size="24.7871" font-family="CMMI12" font-style="italic"><tspan y="-276.109" x="302.96 317.60917">&#x03c0;d</tspan></text>
<text xml:space="preserve" transform="matrix(1 0 -0 1 .000015258789 455.69898)" font-size="20.6625" font-family="CMR17"><tspan y="-285.104" x="330.229">2</tspan></text>
<path transform="matrix(1,0,0,-1,302.96003,190.16199)" stroke-width=".991" stroke-linecap="butt" stroke-miterlimit="10" stroke-linejoin="miter" fill="none" stroke="#000000" d="M 0 0 L 37.243 0 "/>
<text xml:space="preserve" transform="matrix(1 0 -0 1 .000015258789 455.69898)" font-size="24.7871" font-family="CMR17"><tspan y="-242.337" x="315.898">4</tspan><tspan y="-259.34" x="346.907">+</tspan></text>
<text xml:space="preserve" transform="matrix(1 0 -0 1 .000015258789 455.69898)" font-size="24.7871" font-family="CMMI12" font-style="italic"><tspan y="-259.34" x="370.25703 384.9062 398.8861">&#x03c0;hd</tspan></text>
<path transform="matrix(1,0,0,-1,63.348,185.319)" stroke-width="0" stroke-linecap="butt" stroke-miterlimit="10" stroke-linejoin="miter" fill="none" stroke="#ffffff" d="M 145.72986 -42.53111 L 145.72986 -42.53111 L 145.72986 -42.53111 L 145.72986 -42.53111 Z "/>
</g>
</svg>
